<?xml version="1.0" encoding="utf-8"?>
<!-- Generator: Adobe Illustrator 16.0.0, SVG Export Plug-In . SVG Version: 6.00 Build 0)  -->
<!DOCTYPE svg PUBLIC "-//W3C//DTD SVG 1.1//EN" "http://www.w3.org/Graphics/SVG/1.1/DTD/svg11.dtd">
<svg version="1.1" id="Capa_1" xmlns="http://www.w3.org/2000/svg" xmlns:xlink="http://www.w3.org/1999/xlink" x="0px" y="0px"
	 width="212.875px" height="33.676px" viewBox="34.188 0 212.875 33.676" enable-background="new 34.188 0 212.875 33.676"
	 xml:space="preserve">
<path fill="#4983C1" d="M47.894,23.501l-6.016-6.296c-1.367-1.43-3.631-1.479-5.061-0.112c-1.43,1.365-1.481,3.628-0.115,5.06
	l5.711,5.979C44.019,26.781,46.066,25.054,47.894,23.501z"/>
<g enable-background="new    ">
	<path d="M64.692,4.945c1.484,0,2.86,0.132,4.128,0.394c1.267,0.263,2.368,0.714,3.305,1.353c0.936,0.64,1.673,1.485,2.209,2.535
		c0.536,1.051,0.806,2.364,0.806,3.94c0,1.577-0.269,2.89-0.806,3.939c-0.536,1.051-1.273,1.891-2.209,2.519
		c-0.937,0.628-2.039,1.079-3.305,1.354c-1.268,0.273-2.643,0.411-4.128,0.411H61.54v7.536h-6.337V4.945H64.692z M68.632,13.167
		c0-0.548-0.098-0.999-0.292-1.354c-0.193-0.354-0.462-0.633-0.805-0.84c-0.343-0.205-0.731-0.347-1.166-0.427
		c-0.433-0.08-0.89-0.119-1.37-0.119H61.54v5.481H65c0.48,0,0.936-0.04,1.37-0.12c0.434-0.079,0.823-0.223,1.166-0.429
		c0.342-0.207,0.611-0.485,0.805-0.839C68.534,14.166,68.632,13.715,68.632,13.167z"/>
</g>
<g enable-background="new    ">
	<path d="M72.666,16.935c0-1.667,0.268-3.254,0.806-4.762c0.535-1.506,1.341-2.836,2.415-3.99c1.073-1.153,2.409-2.066,4.007-2.741
		c1.599-0.673,3.472-1.01,5.619-1.01c2.146,0,4.019,0.337,5.619,1.01c1.599,0.674,2.935,1.588,4.008,2.741
		c1.073,1.154,1.877,2.484,2.415,3.99c0.536,1.508,0.805,3.096,0.805,4.762c0,1.666-0.269,3.253-0.805,4.761
		c-0.537,1.507-1.342,2.838-2.415,3.991c-1.074,1.153-2.409,2.067-4.008,2.741c-1.599,0.673-3.471,1.011-5.619,1.011
		c-2.147,0-4.02-0.338-5.619-1.011c-1.598-0.674-2.934-1.588-4.007-2.741c-1.073-1.153-1.878-2.484-2.415-3.991
		C72.934,20.189,72.666,18.603,72.666,16.935z M91.849,16.935c0-0.959-0.137-1.845-0.411-2.655c-0.274-0.81-0.674-1.518-1.2-2.124
		c-0.526-0.605-1.188-1.073-1.986-1.404c-0.799-0.331-1.712-0.497-2.741-0.497c-1.028,0-1.941,0.166-2.741,0.497
		c-0.799,0.332-1.461,0.8-1.987,1.404c-0.526,0.605-0.924,1.314-1.199,2.124c-0.275,0.81-0.412,1.696-0.412,2.655
		s0.137,1.843,0.412,2.655c0.274,0.812,0.672,1.519,1.199,2.124c0.525,0.604,1.188,1.074,1.987,1.403
		c0.8,0.332,1.713,0.497,2.741,0.497c1.028,0,1.941-0.167,2.741-0.497c0.799-0.33,1.461-0.8,1.986-1.403
		c0.525-0.605,0.926-1.312,1.2-2.124C91.712,18.778,91.849,17.895,91.849,16.935z"/>
</g>
<g enable-background="new    ">
	<path d="M130.496,4.945l-7.332,23.979h-6.85l-4.077-14.833l-4.077,14.833h-6.852L93.979,4.945h6.85l4.077,16.854l4.555-16.854h5.55
		l4.556,16.854l4.077-16.854H130.496z"/>
	<path d="M147.245,4.945v5.481h-10.927v3.665h9.898v5.447h-9.898v3.905h11.133v5.48h-17.47V4.945H147.245z"/>
</g>
<g enable-background="new    ">
	<path d="M146.831,28.924V4.945h10.104c1.209,0,2.402,0.125,3.58,0.376c1.176,0.252,2.227,0.685,3.151,1.301
		c0.925,0.617,1.673,1.445,2.242,2.484c0.571,1.04,0.856,2.346,0.856,3.923c0,1.005-0.113,1.891-0.342,2.654
		c-0.229,0.766-0.548,1.439-0.959,2.021c-0.411,0.583-0.897,1.08-1.456,1.491c-0.56,0.411-1.17,0.754-1.833,1.027l6.611,8.701
		h-7.158l-5.723-7.812h-2.74v7.812H146.831L146.831,28.924z M153.166,15.976h4.043c0.913,0,1.648-0.228,2.209-0.685
		c0.56-0.458,0.84-1.154,0.84-2.089c0-0.937-0.28-1.633-0.84-2.09c-0.561-0.457-1.296-0.685-2.209-0.685h-4.043V15.976z"/>
</g>
<g enable-background="new    ">
	<path d="M182.585,6.121V22.93c0,1.087-0.176,2.026-0.522,2.818c-0.348,0.794-0.831,1.45-1.449,1.972
		c-0.618,0.521-1.352,0.906-2.198,1.156c-0.848,0.249-1.771,0.375-2.771,0.375c-1.15,0-2.226-0.114-3.224-0.342
		c-0.999-0.228-1.868-0.581-2.606-1.06v-0.813c0.76,0.499,1.629,0.863,2.606,1.091c0.977,0.228,2.021,0.342,3.127,0.342
		c0.911,0,1.749-0.108,2.509-0.327c0.759-0.216,1.416-0.553,1.971-1.008c0.553-0.456,0.981-1.031,1.286-1.728
		c0.303-0.693,0.456-1.519,0.456-2.475V6.903h-7.524V6.121H182.585z"/>
	<path d="M184.538,17.523c0-2.064,0.346-3.833,1.043-5.311c0.692-1.477,1.605-2.692,2.737-3.648
		c1.127-0.956,2.408-1.656,3.844-2.102c1.433-0.444,2.888-0.667,4.364-0.667c1.172,0,2.323,0.125,3.452,0.375
		c1.128,0.25,2.172,0.626,3.128,1.125v0.814c-0.913-0.5-1.944-0.879-3.095-1.141c-1.152-0.261-2.292-0.39-3.421-0.39
		c-1.39,0-2.758,0.206-4.104,0.619s-2.546,1.059-3.6,1.938c-1.054,0.88-1.907,2.009-2.558,3.388c-0.65,1.38-0.976,3.047-0.976,5
		c0,1.953,0.331,3.626,0.992,5.017c0.664,1.391,1.53,2.524,2.606,3.404c1.075,0.879,2.297,1.52,3.665,1.92
		c1.368,0.404,2.758,0.604,4.169,0.604c1.108,0,2.182-0.108,3.226-0.327c1.041-0.216,2.008-0.541,2.898-0.976V17.034h0.813V27.72
		c-1.042,0.5-2.155,0.879-3.338,1.141c-1.185,0.259-2.396,0.391-3.632,0.391c-1.521,0-3.014-0.218-4.479-0.652
		c-1.467-0.434-2.77-1.123-3.91-2.068c-1.139-0.944-2.062-2.161-2.769-3.648C184.89,21.394,184.538,19.607,184.538,17.523z"/>
	<path d="M212.226,28.924v-9.25l-8.99-13.552h0.912l8.469,12.77l8.471-12.77h0.911l-8.957,13.552v9.25H212.226z"/>
	<path d="M245.647,6.121v22.803h-0.812V7.751L234.703,22.54h-0.488L224.083,7.751v21.173h-0.813V6.121h0.617l10.554,15.408
		l10.587-15.408H245.647z"/>
</g>
<path fill="#5B98EB" d="M48.613,25.865c-0.004,1.979-1.611,3.576-3.587,3.572l0,0c-1.976-0.002-3.577-1.605-3.572-3.584l0.03-17.369
	c0.003-1.977,1.609-3.577,3.585-3.573l0,0c1.978,0.002,3.576,1.606,3.574,3.584L48.613,25.865z"/>
</svg>
